<svg xmlns="http://www.w3.org/2000/svg" x="0px" y="0px" width="48" height="48" viewBox="0,0,256,256"
style="fill:#000000;">
<g fill="none" fill-rule="nonzero" stroke="none" stroke-width="1" stroke-linecap="butt" stroke-linejoin="miter" stroke-miterlimit="10" stroke-dasharray="" stroke-dashoffset="0" font-family="none" font-weight="none" font-size="none" text-anchor="none" style="mix-blend-mode: normal"><g transform="scale(5.33333,5.33333)"><path d="M24,4c-11.04569,0 -20,8.95431 -20,20c0,11.04569 8.95431,20 20,20c11.04569,0 20,-8.95431 20,-20c0,-11.04569 -8.95431,-20 -20,-20z" fill="#29b6f6"></path><path d="M33.95,15l-3.746,19.126c0,0 -0.161,0.874 -1.245,0.874c-0.576,0 -0.873,-0.274 -0.873,-0.274l-8.114,-6.733l-3.97,-2.001l-5.095,-1.355c0,0 -0.907,-0.262 -0.907,-1.012c0,-0.625 0.933,-0.923 0.933,-0.923l21.316,-8.468c-0.001,-0.001 0.651,-0.235 1.126,-0.234c0.292,0 0.625,0.125 0.625,0.5c0,0.25 -0.05,0.5 -0.05,0.5z" fill="#ffffff"></path><path d="M23,30.505l-3.426,3.374c0,0 -0.149,0.115 -0.348,0.12c-0.069,0.002 -0.143,-0.009 -0.219,-0.043l0.964,-5.965z" fill="#b0bec5"></path><path d="M29.897,18.196c-0.169,-0.22 -0.481,-0.26 -0.701,-0.093l-13.196,7.897c0,0 2.106,5.892 2.427,6.912c0.322,1.021 0.58,1.045 0.58,1.045l0.964,-5.965l9.832,-9.096c0.22,-0.167 0.261,-0.48 0.094,-0.7z" fill="#cfd8dc"></path></g></g><g fill="#dfdcdc" fill-rule="nonzero" stroke="none" stroke-width="1" stroke-linecap="butt" stroke-linejoin="miter" stroke-miterlimit="10" stroke-dasharray="" stroke-dashoffset="0" font-family="none" font-weight="none" font-size="none" text-anchor="none" style="mix-blend-mode: normal"><g><path d="M53.92667,189.71167h-8.4v-30.34h8.56c2.64,0 4.97333,0.58333 7,1.75c2.03333,1.16667 3.6,2.82667 4.7,4.98c1.10667,2.15333 1.66667,4.62667 1.68,7.42v0v1.94c0,2.86 -0.55333,5.36667 -1.66,7.52c-1.1,2.15333 -2.67667,3.80667 -4.73,4.96c-2.04667,1.15333 -4.43,1.74333 -7.15,1.77zM54.19667,162.67167h-4.67v23.77h4.21c3.08,0 5.48,-0.96 7.2,-2.88c1.71333,-1.91333 2.57,-4.64333 2.57,-8.19v0v-1.77c0,-3.44 -0.81,-6.11667 -2.43,-8.03c-1.61333,-1.90667 -3.90667,-2.87333 -6.88,-2.9zM90.85667,189.71167h-4.04c-0.22,-0.44667 -0.4,-1.24 -0.54,-2.38v0c-1.79333,1.86 -3.93333,2.79 -6.42,2.79v0c-2.22,0 -4.04,-0.62667 -5.46,-1.88c-1.42667,-1.26 -2.14,-2.85333 -2.14,-4.78v0c0,-2.34667 0.89333,-4.17 2.68,-5.47c1.78,-1.3 4.29,-1.95 7.53,-1.95v0h3.75v-1.77c0,-1.34667 -0.40333,-2.42 -1.21,-3.22c-0.80667,-0.8 -1.99333,-1.2 -3.56,-1.2v0c-1.37333,0 -2.52667,0.34667 -3.46,1.04c-0.93333,0.7 -1.4,1.54333 -1.4,2.53v0h-3.87c0,-1.12667 0.4,-2.21667 1.2,-3.27c0.79333,-1.04667 1.87667,-1.87333 3.25,-2.48c1.36667,-0.61333 2.87,-0.92 4.51,-0.92v0c2.59333,0 4.62667,0.65 6.1,1.95c1.47333,1.29333 2.23667,3.08 2.29,5.36v0v10.38c0,2.06667 0.26333,3.71 0.79,4.93v0zM80.42667,186.77167v0c1.20667,0 2.35,-0.31333 3.43,-0.94c1.08667,-0.62667 1.87333,-1.44 2.36,-2.44v0v-4.62h-3.02c-4.72667,0 -7.09,1.38333 -7.09,4.15v0c0,1.20667 0.40333,2.15 1.21,2.83c0.80667,0.68 1.84333,1.02 3.11,1.02zM97.48667,161.71167h3.85v5.46h4.21v2.97h-4.21v13.98c0,0.90667 0.19,1.58333 0.57,2.03c0.37333,0.45333 1.01,0.68 1.91,0.68v0c0.44667,0 1.06,-0.08333 1.84,-0.25v0v3.13c-1.01333,0.27333 -2,0.41 -2.96,0.41v0c-1.72667,0 -3.02667,-0.52 -3.9,-1.56c-0.87333,-1.04 -1.31,-2.52 -1.31,-4.44v0v-13.98h-4.1v-2.97h4.1zM128.00667,189.71167h-4.04c-0.22,-0.44667 -0.4,-1.24 -0.54,-2.38v0c-1.79333,1.86 -3.93333,2.79 -6.42,2.79v0c-2.22,0 -4.04333,-0.62667 -5.47,-1.88c-1.42,-1.26 -2.13,-2.85333 -2.13,-4.78v0c0,-2.34667 0.89,-4.17 2.67,-5.47c1.78667,-1.3 4.29667,-1.95 7.53,-1.95v0h3.75v-1.77c0,-1.34667 -0.4,-2.42 -1.2,-3.22c-0.80667,-0.8 -1.99667,-1.2 -3.57,-1.2v0c-1.37333,0 -2.52333,0.34667 -3.45,1.04c-0.93333,0.7 -1.4,1.54333 -1.4,2.53v0h-3.88c0,-1.12667 0.4,-2.21667 1.2,-3.27c0.8,-1.04667 1.88333,-1.87333 3.25,-2.48c1.36667,-0.61333 2.87,-0.92 4.51,-0.92v0c2.6,0 4.63667,0.65 6.11,1.95c1.47333,1.29333 2.23667,3.08 2.29,5.36v0v10.38c0,2.06667 0.26333,3.71 0.79,4.93v0zM117.56667,186.77167v0c1.21333,0 2.36,-0.31333 3.44,-0.94c1.08667,-0.62667 1.87,-1.44 2.35,-2.44v0v-4.62h-3.02c-4.72,0 -7.08,1.38333 -7.08,4.15v0c0,1.20667 0.40333,2.15 1.21,2.83c0.80667,0.68 1.84,1.02 3.1,1.02zM145.00667,177.83167h-7.15v11.88h-4v-30.34h11.19c3.32,0 5.92,0.85 7.8,2.55c1.88667,1.69333 2.83,3.93333 2.83,6.72v0c0,2.94667 -0.92,5.21667 -2.76,6.81c-1.84,1.58667 -4.47667,2.38 -7.91,2.38zM137.85667,162.67167v11.89h7.19c2.14,0 3.78,-0.50333 4.92,-1.51c1.14,-1.00667 1.71,-2.46 1.71,-4.36v0c0,-1.80667 -0.57,-3.25333 -1.71,-4.34c-1.14,-1.08 -2.70333,-1.64 -4.69,-1.68v0zM164.35667,167.17167v22.54h-3.85v-22.54zM160.19667,161.19167v0c0,-0.62667 0.19,-1.15667 0.57,-1.59c0.38,-0.42667 0.94667,-0.64 1.7,-0.64c0.74667,0 1.31667,0.21333 1.71,0.64c0.38667,0.43333 0.58,0.96333 0.58,1.59c0,0.62 -0.19333,1.14 -0.58,1.56c-0.39333,0.41333 -0.96333,0.62 -1.71,0.62c-0.75333,0 -1.32,-0.20667 -1.7,-0.62c-0.38,-0.42 -0.57,-0.94 -0.57,-1.56zM189.56667,178.33167v0.36c0,3.42667 -0.78333,6.19 -2.35,8.29c-1.57333,2.09333 -3.7,3.14 -6.38,3.14v0c-2.73333,0 -4.88333,-0.86667 -6.45,-2.6v0v10.85h-3.86v-31.2h3.52l0.19,2.5c1.56667,-1.94667 3.74667,-2.92 6.54,-2.92v0c2.70667,0 4.85,1.02 6.43,3.06c1.57333,2.04 2.36,4.88 2.36,8.52zM185.71667,178.25167v0c0,-2.54 -0.54333,-4.54667 -1.63,-6.02c-1.08,-1.47333 -2.56333,-2.21 -4.45,-2.21v0c-2.33333,0 -4.08333,1.03333 -5.25,3.1v0v10.77c1.14667,2.06 2.91,3.09 5.29,3.09v0c1.84667,0 3.31333,-0.73333 4.4,-2.2c1.09333,-1.46667 1.64,-3.64333 1.64,-6.53zM203.81667,190.12167v0c-3.05333,0 -5.54,-1.00333 -7.46,-3.01c-1.91333,-2.00667 -2.87,-4.69 -2.87,-8.05v0v-0.71c0,-2.23333 0.42667,-4.23 1.28,-5.99c0.85333,-1.75333 2.04667,-3.12667 3.58,-4.12c1.54,-0.99333 3.20333,-1.49 4.99,-1.49v0c2.93333,0 5.21333,0.96333 6.84,2.89c1.62,1.93333 2.43,4.7 2.43,8.3v0v1.6h-15.27c0.06,2.22 0.71,4.01667 1.95,5.39c1.24667,1.36667 2.82667,2.05 4.74,2.05v0c1.36,0 2.51333,-0.28 3.46,-0.84c0.94667,-0.55333 1.77333,-1.28667 2.48,-2.2v0l2.35,1.83c-1.88667,2.9 -4.72,4.35 -8.5,4.35zM203.33667,169.92167v0c-1.55333,0 -2.85667,0.56333 -3.91,1.69c-1.06,1.13333 -1.71333,2.72 -1.96,4.76v0h11.29v-0.29c-0.11333,-1.96 -0.64,-3.47667 -1.58,-4.55c-0.94667,-1.07333 -2.22667,-1.61 -3.84,-1.61z"></path></g></g>
</svg>